<?xml version="1.0" standalone="no"?>
<!DOCTYPE svg PUBLIC "-//W3C//DTD SVG 20010904//EN"
        "http://www.w3.org/TR/2001/REC-SVG-20010904/DTD/svg10.dtd">
<svg version="1.0" xmlns="http://www.w3.org/2000/svg"
     width="700.000000pt" height="700.000000pt" viewBox="0 0 700.000000 700.000000"
     preserveAspectRatio="xMidYMid meet">
    <metadata>
        Created by potrace 1.14, written by Peter Selinger 2001-2017
    </metadata>
    <g transform="translate(0.000000,700.000000) scale(0.100000,-0.100000)"
       fill="#000000" stroke="none">
        <path d="M3278 6995 c-1 -1 -41 -5 -88 -9 -97 -8 -98 -8 -325 -42 -16 -3 -37
-7 -45 -9 -8 -2 -26 -6 -40 -9 -140 -25 -484 -130 -597 -181 -29 -14 -56 -25
-60 -25 -3 0 -72 -32 -152 -71 -152 -75 -352 -191 -452 -262 -31 -23 -67 -49
-79 -57 -61 -41 -216 -168 -299 -245 -512 -472 -868 -1068 -1035 -1730 -21
-84 -32 -138 -61 -295 -4 -20 -18 -120 -21 -145 -26 -234 -25 -684 1 -823 1
-9 6 -42 9 -72 7 -62 12 -94 26 -165 6 -27 12 -59 14 -70 16 -80 51 -214 62
-236 68 -135 265 -143 344 -13 32 51 36 114 11 209 -36 142 -51 222 -70 380
-37 292 -28 617 24 910 15 85 27 143 35 170 5 17 11 42 14 56 13 78 109 360
164 479 13 30 35 78 47 106 21 45 66 130 134 248 26 46 132 209 140 216 4 3
26 32 50 65 41 55 115 147 151 185 92 101 207 214 311 306 64 56 212 166 314
232 55 35 111 72 125 81 41 27 280 147 350 175 36 15 74 31 85 36 100 46 418
135 590 165 85 15 105 18 200 29 182 23 511 23 685 1 256 -33 480 -84 685
-156 927 -325 1648 -1073 1939 -2011 25 -81 48 -162 51 -180 3 -18 10 -49 15
-69 6 -20 16 -74 24 -120 13 -75 19 -117 31 -214 26 -197 21 -541 -10 -750
-39 -260 -86 -450 -161 -654 -49 -133 -68 -176 -146 -331 -367 -732 -1035
-1304 -1813 -1553 -111 -35 -206 -62 -258 -71 -15 -3 -35 -7 -45 -10 -32 -10
-166 -32 -304 -50 -18 -3 -78 -8 -133 -11 -425 -27 -803 22 -1205 154 -405
134 -805 371 -1112 660 -118 111 -129 119 -172 134 -93 31 -204 -19 -242 -110
-18 -41 -18 -115 0 -156 19 -46 144 -167 321 -311 83 -68 329 -246 340 -246 3
0 31 -17 62 -37 62 -39 309 -167 383 -198 25 -10 69 -29 99 -42 139 -62 447
-152 637 -188 116 -21 134 -24 184 -31 25 -3 56 -7 70 -10 157 -25 682 -25
842 1 13 2 43 6 68 9 25 3 72 11 105 17 33 5 74 12 90 15 86 15 296 71 415
111 1168 388 2040 1351 2316 2558 18 77 52 276 59 345 3 30 8 73 11 95 9 69
11 516 3 607 -13 138 -21 207 -39 308 -6 36 -13 79 -16 95 -23 132 -110 430
-169 580 -364 929 -1114 1671 -2035 2013 -204 76 -484 151 -663 177 -27 3 -58
8 -70 11 -12 2 -51 6 -87 10 -36 3 -78 8 -95 11 -33 5 -531 13 -537 8z"/>
        <path d="M3417 6105 c-1 -1 -47 -5 -102 -9 -121 -8 -174 -14 -240 -26 -27 -5
-61 -11 -75 -14 -64 -10 -214 -49 -300 -78 -335 -109 -647 -287 -920 -524
-127 -109 -354 -365 -427 -480 -244 -381 -362 -677 -422 -1054 -124 -771 93
-1537 598 -2119 98 -113 242 -253 332 -323 16 -12 40 -31 52 -42 41 -34 202
-143 274 -185 292 -168 609 -280 928 -326 22 -4 51 -8 65 -10 163 -27 542 -22
720 11 19 3 49 8 65 11 200 31 481 126 700 236 151 75 388 226 458 290 7 7 42
37 77 67 159 134 353 354 467 529 30 47 64 98 74 113 38 54 179 356 212 453
80 233 125 443 143 670 17 214 10 271 -38 329 -90 110 -263 92 -325 -34 -18
-36 -23 -69 -28 -170 -3 -68 -7 -136 -10 -150 -2 -14 -6 -45 -9 -70 -3 -25 -8
-55 -10 -66 -2 -12 -7 -39 -10 -59 -4 -21 -16 -75 -27 -119 -137 -539 -488
-1022 -959 -1322 -88 -55 -321 -174 -343 -174 -7 0 -17 -4 -23 -9 -14 -13
-189 -70 -283 -93 -200 -47 -329 -62 -531 -62 -128 0 -296 10 -310 19 -3 2
-30 6 -60 10 -77 10 -302 68 -385 100 -65 25 -104 42 -225 98 -176 81 -411
251 -584 422 -263 261 -470 618 -567 978 -25 93 -56 267 -66 365 -14 140 -7
442 13 536 3 12 7 39 10 61 3 22 17 83 30 135 14 52 27 104 29 116 9 42 86
237 127 322 136 282 341 542 586 744 49 40 99 80 112 88 12 8 32 22 44 31 76
58 377 219 409 219 7 0 17 4 23 9 14 13 145 56 274 89 192 50 329 67 545 66
118 0 302 -11 315 -19 3 -2 26 -6 50 -10 90 -12 288 -66 400 -108 461 -176
848 -490 1101 -897 71 -114 101 -144 161 -161 167 -45 308 130 228 284 -39 75
-144 229 -230 337 -337 422 -843 752 -1359 885 -54 14 -108 28 -120 30 -11 3
-29 7 -38 9 -27 5 -158 27 -190 31 -94 12 -397 26 -406 20z"/>
        <path d="M3367 5144 c-1 -1 -27 -5 -57 -8 -174 -20 -369 -77 -521 -151 -93
-46 -203 -111 -219 -129 -7 -9 -17 -16 -22 -16 -5 0 -31 -17 -56 -37 -221
-178 -397 -404 -501 -643 -28 -64 -78 -207 -85 -241 -3 -13 -12 -57 -21 -98
-22 -102 -29 -186 -29 -331 1 -116 11 -257 20 -271 2 -4 6 -24 10 -45 8 -51
57 -217 83 -281 162 -406 480 -731 891 -911 60 -27 222 -77 290 -91 30 -6 66
-14 80 -16 98 -20 326 -25 459 -12 41 5 77 10 80 12 4 2 24 6 46 9 114 18 291
78 420 143 436 218 761 630 869 1103 150 653 -105 1320 -656 1715 -196 140
-453 246 -678 280 -25 4 -58 9 -75 12 -29 5 -323 12 -328 7z"/>
    </g>
</svg>
